# Blender 5.1.0 Alpha
# www.blender.org
mtllib Sony Xparia x10 OLD V2.2 REPLICA.mtl
o CORPUS_SLIDE_TOP_CASE.BLANK_9.001
v 22.651106 0.871845 22.755632
v -27.350142 0.871849 22.755636
v -27.350142 2.661295 22.755636
v 22.651106 0.871845 -17.521132
v -34.736824 2.737766 25.098860
v -27.350142 0.871849 -17.521128
v 30.351105 0.871845 22.755632
v -40.358803 0.546293 27.135269
v -27.350142 2.661295 -17.521128
v 30.351105 0.871845 -17.521132
v -19.650141 0.871849 22.755636
v -44.000004 0.601648 24.900894
v -34.736824 2.737766 -25.098860
v -19.650141 2.661295 22.755636
v -19.650141 0.871849 -17.521128
v -44.000004 0.601648 -24.630362
v -40.358803 0.601648 -26.864737
v -19.650141 2.661295 -17.521128
v 34.736824 2.737766 25.098860
v 44.000004 0.601648 24.900894
v 40.358803 0.546293 27.135269
v 34.736824 2.737766 -25.098860
v 40.358803 0.601648 -26.864737
v 44.000004 0.601648 -24.630362
v -44.000004 3.083582 24.900894
v -40.358803 3.083582 27.135269
v -40.358803 3.083582 -26.864737
v -44.000004 3.083582 -24.630362
v 40.358803 3.083582 27.135269
v 44.000004 3.083582 24.900894
v 44.000004 3.083582 -24.630362
v 40.358803 3.083582 -26.864737
v -40.759693 5.601648 25.424139
v -42.876835 4.372156 24.901955
v -40.118855 5.601648 25.828089
v -40.360531 4.372156 26.446051
v -40.118855 5.601648 -25.557556
v -40.360531 4.372156 -26.175520
v -40.759693 5.601648 -25.153606
v -42.876835 4.372156 -24.631422
v 40.118855 5.601648 25.828089
v 40.360531 4.372156 26.446051
v 40.759693 5.601648 25.424139
v 42.876835 4.372156 24.901955
v 40.759693 5.601648 -25.153606
v 42.876835 4.372156 -24.631422
v 40.118855 5.601648 -25.557556
v 40.360531 4.372156 -26.175520
v -42.179401 3.083582 -25.747549
v -40.439274 5.601648 -25.355581
v -41.618683 4.372156 -25.403471
v 42.379402 0.546293 26.018082
v 42.179401 3.083582 26.018082
v 40.439274 5.601648 25.626114
v 41.618683 4.372156 25.674002
v -42.379402 0.546293 26.018082
v -42.179401 3.083582 26.018082
v -40.439274 5.601648 25.626114
v -41.618683 4.372156 25.674002
v 42.179401 3.083582 -25.747549
v 40.439274 5.601648 -25.355581
v 41.618683 4.372156 -25.403471
v -44.000004 3.083582 -8.119944
v -44.000004 3.083582 8.390475
v 44.000004 3.083582 8.390475
v 44.000004 3.083582 -8.119944
v -40.759693 5.601648 8.390471
v -40.759693 5.601648 -8.119941
v -42.876835 4.372156 -8.119941
v -42.876835 4.372156 8.390471
v 40.759693 5.601648 -8.119941
v 40.759693 5.601648 8.390471
v 42.876835 4.372156 8.390828
v 42.876835 4.372156 -8.119941
v 44.000004 0.601648 8.390475
v 44.000004 0.601648 -8.119944
v 42.379402 0.546293 8.390471
v 42.179401 0.546293 -8.119941
v 40.358803 0.546293 8.390471
v 40.358803 0.546293 -8.119941
v -42.179401 0.546293 -8.119941
v -42.379402 0.546293 8.390471
v -40.358803 0.546293 8.390471
v -40.358803 0.546293 -8.119941
v -44.000004 0.601648 8.390475
v -44.000004 0.601648 -8.119944
v 42.379402 0.546293 -8.119941
v -42.379402 0.601648 -8.119941
v 44.000004 3.083582 -13.623416
v 44.000004 3.083582 -19.126890
v -40.759693 5.601648 -13.797829
v -40.759693 5.601648 -19.475718
v 42.876835 4.372156 -13.623767
v 42.876835 4.372156 -19.127594
v 44.000004 0.601648 -13.623416
v 44.000004 0.601648 -19.126890
v 42.179401 0.546293 -13.995811
v 42.179401 0.546293 -19.971680
v 40.358803 0.546293 -14.368207
v 40.358803 0.546293 -20.816473
v -40.358803 0.546293 -14.368207
v -40.358803 0.546293 -20.816473
v -44.000004 0.601648 -13.623416
v -44.000004 0.601648 -19.126890
v -44.000004 3.083582 -19.126890
v -44.000004 3.083582 -13.623416
v -42.876835 4.372156 -19.127596
v -42.876835 4.372156 -13.623769
v 40.759693 5.601648 -19.475718
v 40.759693 5.601648 -13.797829
v -42.179401 0.546293 -19.971680
v -42.179401 0.546293 -13.995811
v 42.379402 0.546293 -13.995811
v 42.379402 0.546293 -19.871679
v -42.379402 0.601648 -19.871679
v -42.379402 0.601648 -13.995811
v 42.179401 -0.898352 -19.971680
v 40.358803 -0.898352 -20.816473
v 40.358803 -0.898352 -26.864737
v -40.358803 -0.898352 -20.816473
v -40.358803 -0.898352 -26.864737
v 44.000004 -0.898352 -19.126890
v 44.000004 -0.898352 -24.630362
v 42.379402 -0.898352 -19.871679
v -44.000004 -0.898352 -24.630362
v -44.000004 -0.898352 -19.126890
v 44.000004 -0.898352 8.390475
v 44.000004 -0.898352 -8.119944
v 42.379402 -0.898352 8.390471
v 42.379402 -0.898352 -8.119941
v -42.379402 -0.898352 -13.995811
v -42.379402 -0.898352 -8.119941
v -42.379402 -0.898352 8.390471
v -44.000004 -0.898352 8.390475
v -44.000004 -0.898352 -8.119944
v -42.179401 -0.898352 -19.971680
v 44.000004 -0.898352 -13.623416
v 42.379402 -0.898352 -13.995811
v -44.000004 -0.898352 -13.623416
v -42.379402 -0.898352 -19.871679
v -34.736824 5.601648 25.098860
v 34.736824 5.601648 25.098860
v -34.736824 5.601648 8.390471
v 34.736824 5.601648 8.390471
v 34.736824 5.601648 -13.797829
v -34.736824 5.601648 -13.797829
v -34.736824 5.601648 -8.119941
v 34.736824 5.601648 -8.119941
v -34.736824 5.601648 -19.475718
v 34.736824 5.601648 -19.475718
v -34.736824 5.601648 -25.098860
v 34.736824 5.601648 -25.098860
v 24.472784 0.546293 20.988575
v 28.522785 0.546293 20.988575
v -25.527220 0.546293 20.988575
v -25.527220 0.546293 8.390471
v -21.477221 0.546293 8.390471
v -21.477221 0.546293 20.988575
v 28.522785 0.546293 8.390471
v 24.472784 0.546293 8.390471
v -25.527220 0.546293 -8.119941
v -21.477221 0.546293 -8.119941
v 24.472784 0.546293 -8.119941
v 28.522785 0.546293 -8.119941
v -25.527220 0.546293 -14.368207
v -21.477221 0.546293 -14.368207
v 24.472784 0.546293 -14.368207
v 28.522785 0.546293 -14.368207
v -21.477221 0.546293 -15.690284
v 24.472784 0.546293 -15.690284
v 28.522785 0.546293 -15.690284
v -25.527220 0.546293 -15.690284
v 44.000004 -0.898352 24.900894
v 42.379402 -0.898352 26.018082
v -42.379402 -0.898352 26.018082
v -44.000004 -0.898352 24.900894
v -14.000002 -0.898352 -22.989674
v 14.000002 -0.898352 -22.989674
v 14.000002 2.737766 -22.989674
v -14.000002 2.737766 -22.989674
v -14.152900 0.546293 -13.367627
v -14.152900 0.546293 -14.368207
v 14.152900 0.546293 -9.526973
v 14.152900 0.546293 -14.368207
v -14.152900 0.546293 -8.119941
v -14.152900 0.546293 -12.175643
v 14.152900 0.546293 -8.119941
v 5.200254 0.546293 -8.106788
v -14.152900 0.546293 -8.106788
v 14.152900 0.546293 -8.106788
v 14.152900 0.601648 -20.816473
v 14.152900 0.546293 -19.795630
v 14.152900 0.546293 -19.746367
v -14.152900 0.546293 -14.579921
v 14.152900 0.546293 -15.392568
v 14.152900 0.546293 -19.730108
v -14.152900 0.546293 -19.795630
v -14.152900 0.546293 -20.816473
v 14.152900 0.546293 -16.902533
v 14.152900 0.546293 -16.793791
v 14.152900 0.546293 -15.690284
v -14.152900 0.546293 -15.690284
v -14.152900 0.546293 -19.706404
v -14.152900 0.546293 -19.735062
v -14.152900 -0.898352 -20.851555
v -14.152900 -0.898352 -20.816473
v 14.152900 -0.898352 -22.971388
v 14.152900 -0.898352 -20.816473
v 14.000002 -0.898352 -22.971388
v -14.152900 -0.898352 -22.971388
v -14.000002 -0.898352 -22.971388
v -14.152900 -0.889650 -20.816473
v 14.152900 -0.889650 -20.816473
v 14.152900 2.737766 -19.197159
v 14.152900 2.737766 -19.730108
v -14.152900 2.737766 -19.706404
v -14.152900 2.737766 -18.961359
v -2.963302 2.737766 14.193642
v 14.152900 2.737766 -13.136970
v 14.152900 2.737766 14.193642
v -14.152900 2.737766 14.193642
v -14.152900 2.737766 -15.941205
v -3.085062 2.737766 14.193642
v 14.152900 2.737766 -20.912672
v 14.000002 2.737766 -22.971388
v 14.036311 2.737766 -22.971388
v -14.152900 2.737766 -20.882029
v -14.000002 2.737766 -22.971388
v -14.025975 2.737766 -22.971388
v 14.152900 2.737766 -22.971388
v -14.152900 2.737766 -22.971388
v 14.000002 2.353874 -22.971388
v 14.000002 2.512241 -22.971388
v -14.000002 -0.739985 -22.971388
v -14.000002 2.705215 -22.971388
v -14.000002 2.512241 -22.971388
v -26.078856 2.737766 21.255636
v -27.350142 2.737766 11.666567
v -27.350142 2.737766 21.255636
v -27.350142 2.737766 -17.521128
v -25.802826 2.737766 -17.521128
v -22.385504 2.737766 21.255636
v -20.919731 2.737766 -17.521128
v -19.650141 2.737766 10.819610
v -19.650141 2.737766 -17.521128
v -19.650141 2.737766 20.988575
v -19.650141 2.737766 21.255636
v -21.991724 2.737766 -17.521128
v -21.057291 2.737766 -17.521128
v -27.350142 2.737766 15.971736
v -26.258682 2.737766 -17.521128
v -19.650141 2.737766 -10.737227
v -20.741598 2.737766 21.255636
v -25.527220 0.871849 8.161196
v -25.527220 0.871849 -15.690284
v -25.527220 0.871849 20.988575
v -25.527220 0.871849 16.582748
v -25.527220 0.871849 10.808706
v -25.527220 0.871849 8.623553
v -24.095821 0.871849 -15.690284
v -21.477221 0.871849 -15.690284
v -21.477221 0.871849 8.161196
v -21.477221 0.871849 8.623553
v -21.477221 0.871849 20.988575
v -21.477221 0.871849 16.582748
v -21.477221 0.871849 10.808706
v -24.095821 0.871849 20.988575
v -27.350142 2.661295 16.512619
v -19.650141 2.661295 -11.278111
v -26.370407 2.661295 -17.521128
v -20.629873 2.661295 22.755636
v 28.879780 2.737766 22.755632
v 30.351105 2.737766 7.168901
v 30.351105 2.737766 22.755632
v 30.351105 2.737766 -17.521132
v 28.693058 2.737766 -17.521132
v 24.365862 2.737766 22.755632
v 22.651106 2.737766 -17.521132
v 23.673523 2.737766 -17.521132
v 22.651106 2.737766 13.735382
v 22.651106 2.737766 22.755632
v 22.651106 2.737766 21.118395
v 22.651106 2.737766 20.988575
v 22.651106 2.737766 19.007313
v 23.865831 2.737766 -17.521132
v 24.881956 2.737766 -17.521132
v 24.472784 0.871845 8.161143
v 24.472784 0.871845 -15.690284
v 24.472784 0.871845 16.582731
v 24.472784 0.871845 20.988575
v 24.472784 0.871845 10.808664
v 24.472784 0.871845 8.623504
v 25.904188 0.871845 -15.690284
v 28.522785 0.871845 -15.690284
v 28.522785 0.871845 8.161143
v 28.522785 0.871845 8.623504
v 28.522785 0.871845 16.582731
v 28.522785 0.871845 20.988575
v 28.522785 0.871845 10.808664
v 25.904188 0.871845 20.988575
vn -0.4692 0.4852 0.7379
vn -0.4621 0.4750 0.7489
vn -0.4621 0.4749 0.7490
vn -0.4613 0.4700 0.7525
vn -0.4623 0.4749 -0.7488
vn -0.4632 0.4710 -0.7507
vn -0.4633 0.4710 -0.7507
vn -0.4625 0.4735 -0.7496
vn 0.4692 0.4852 -0.7379
vn 0.4621 0.4750 -0.7489
vn 0.4621 0.4749 -0.7490
vn 0.4613 0.4700 -0.7526
vn 0.7860 -0.4599 0.4131
vn 0.1298 0.8104 -0.5714
vn 0.4629 0.4711 0.7509
vn 0.4626 0.4735 0.7495
vn -0.5022 0.8648 -0.0000
vn -0.5199 0.6672 -0.5334
vn -0.5290 0.8246 -0.2004
vn -0.0000 0.4491 0.8935
vn 0.5022 0.8648 -0.0000
vn -0.0000 0.4491 -0.8935
vn -0.0000 1.0000 -0.0000
vn 0.7814 0.5958 -0.1854
vn -0.4760 0.4143 0.7757
vn -0.5334 0.0966 0.8403
vn -0.5209 0.1827 0.8338
vn -0.7538 0.6571 -0.0000
vn -0.0000 0.4716 0.8818
vn -0.4760 0.4143 -0.7757
vn -0.0000 0.4716 -0.8818
vn 0.4760 0.4143 0.7757
vn 0.7538 0.6571 -0.0000
vn 0.4760 0.4143 -0.7757
vn 0.4661 -0.6324 -0.6187
vn 0.4824 -0.1863 -0.8559
vn 0.4620 0.4750 0.7490
vn -0.4632 0.4711 0.7507
vn -0.4631 0.4709 0.7509
vn 0.4632 0.4710 -0.7507
vn 0.4631 0.4709 -0.7508
vn 1.0000 -0.0000 -0.0000
vn 0.5287 0.0433 0.8477
vn 0.5424 0.0212 0.8399
vn 0.5442 0.0216 0.8386
vn 0.5444 0.0219 0.8385
vn 0.5030 0.0201 0.8641
vn 0.5027 0.0203 0.8642
vn 0.4067 -0.6309 -0.6608
vn 0.5230 -0.0000 -0.8523
vn -0.0000 -0.0000 -1.0000
vn -0.5230 -0.0000 -0.8523
vn -1.0000 -0.0000 -0.0000
vn -0.5676 -0.0000 0.8233
vn -0.5443 0.0216 0.8386
vn -0.5424 0.0212 0.8399
vn -0.5030 0.0201 0.8641
vn -0.5027 0.0203 0.8642
vn -0.0000 -0.0000 1.0000
vn -0.0000 -1.0000 -0.0000
vn -0.5275 0.8495 -0.0000
vn -0.2667 -0.9638 -0.0032
vn -0.2667 -0.9638 -0.0000
vn -0.2668 -0.9638 -0.0000
vn -0.4209 -0.0000 0.9071
vn -0.0021 -0.9985 -0.0541
vn -0.7259 0.6878 -0.0000
vn 0.3391 -0.7631 -0.5501
vn -0.2912 -0.8319 -0.4724
vn 0.4209 -0.0000 0.9071
vn 0.5676 -0.0000 0.8233
vn -1.0000 -0.0000 0.0001
vn -0.0000 0.9952 -0.0978
vn -0.0000 -0.9987 -0.0509
vt 0.859247 0.734540
vt 0.860126 0.733660
vt 0.869235 0.737316
vt 0.865713 0.740838
vt 0.859247 0.515460
vt 0.858367 0.514581
vt 0.862191 0.505640
vt 0.865713 0.509162
vt 0.637305 0.512451
vt 0.636656 0.513543
vt 0.628074 0.511219
vt 0.629866 0.505884
vt 0.637305 0.737549
vt 0.637955 0.738640
vt 0.631659 0.749451
vt 0.629866 0.744116
vt 0.860126 0.540486
vt 0.860126 0.516340
vt 0.869235 0.512684
vt 0.869235 0.537643
vt 0.858367 0.735419
vt 0.862191 0.744360
vt 0.636656 0.662152
vt 0.636656 0.736457
vt 0.628074 0.738781
vt 0.628074 0.662927
vt 0.637955 0.511360
vt 0.631659 0.500549
vt 0.843586 0.732520
vt 0.843615 0.661289
vt 0.860126 0.661220
vt 0.653167 0.662084
vt 0.652775 0.735218
vt 0.875000 0.739656
vt 0.869828 0.744828
vt 0.875000 0.510344
vt 0.875000 0.535823
vt 0.864656 0.750000
vt 0.623203 0.756896
vt 0.864656 0.500000
vt 0.869828 0.505172
vt 0.623203 0.493104
vt 0.620699 0.748276
vt 0.618194 0.535823
vt 0.618194 0.510344
vt 0.628074 0.536504
vt 0.620699 0.501724
vt 0.618194 0.739656
vt 0.618194 0.663219
vt 0.000000 0.000000
vt 0.875000 0.663218
vt 0.875000 0.586781
vt 0.618194 0.561302
vt 0.618194 0.586782
vt 0.628074 0.587073
vt 0.869235 0.662439
vt 0.869235 0.587561
vt 0.860126 0.564633
vt 0.860126 0.588780
vt 0.843615 0.588711
vt 0.843615 0.564518
vt 0.653167 0.587916
vt 0.636656 0.587848
vt 0.636656 0.563079
vt 0.653167 0.563194
vt 0.628074 0.561788
vt 0.636656 0.538311
vt 0.843615 0.540326
vt 0.843586 0.516324
vt 0.652777 0.513610
vt 0.653167 0.538472
vt 0.875000 0.561302
vt 0.869235 0.562602
vt 0.613657 0.083213
vt 0.613657 0.000000
vt 0.375000 0.000000
vt 0.375000 0.250000
vt 0.613657 0.250000
vt 0.613657 0.221995
vt 0.613657 0.165440
vt 0.613657 0.193717
vt 0.375000 0.500000
vt 0.613657 0.500000
vt 0.613657 0.528005
vt 0.375000 0.750000
vt 0.613657 0.750000
vt 0.613657 0.666787
vt 0.613657 0.556283
vt 0.613657 0.584560
vt 0.375000 1.000000
vt 0.613657 1.000000
vt 0.353924 0.730860
vt 0.359218 0.660703
vt 0.359218 0.730860
vt 0.353252 0.545210
vt 0.359218 0.545210
vt 0.151581 0.683103
vt 0.125000 0.500000
vt 0.125000 0.750000
vt 0.156156 0.730860
vt 0.151581 0.730860
vt 0.151581 0.704544
vt 0.155508 0.545210
vt 0.157149 0.545210
vt 0.151581 0.545210
vt 0.169446 0.730860
vt 0.337680 0.730860
vt 0.300929 0.526738
vt 0.300929 0.529392
vt 0.331510 0.693406
vt 0.331510 0.545210
vt 0.335189 0.545210
vt 0.331510 0.730860
vt 0.331510 0.730176
vt 0.179289 0.571525
vt 0.179289 0.678885
vt 0.199071 0.530567
vt 0.199071 0.526856
vt 0.174721 0.545210
vt 0.179289 0.545210
vt 0.175362 0.730860
vt 0.331510 0.729530
vt 0.179289 0.729530
vt 0.179289 0.730860
vt 0.300929 0.559574
vt 0.300929 0.584626
vt 0.239337 0.584626
vt 0.331510 0.719662
vt 0.238898 0.584626
vt 0.199071 0.584626
vt 0.199071 0.545608
vt 0.335881 0.545210
vt 0.300929 0.520849
vt 0.300379 0.520465
vt 0.300379 0.520556
vt 0.300509 0.520556
vt 0.339537 0.545210
vt 0.170863 0.545210
vt 0.199621 0.520556
vt 0.199621 0.520465
vt 0.199528 0.520556
vt 0.199071 0.521001
vt 0.174226 0.545210
vt 0.300929 0.520556
vt 0.199071 0.520556
vt 0.480619 0.087431
vt 0.411165 0.250000
vt 0.480619 0.250000
vt 0.480619 0.000000
vt 0.411165 0.000000
vt 0.411165 0.085868
vt 0.480619 0.030030
vt 0.411165 0.198401
vt 0.480619 0.069385
vt 0.411165 0.240989
vt 0.480619 0.084279
vt 0.411165 0.500000
vt 0.480619 0.337431
vt 0.480619 0.500000
vt 0.480619 0.662569
vt 0.411165 0.509011
vt 0.480619 0.665721
vt 0.411165 0.664132
vt 0.411165 0.750000
vt 0.480619 0.750000
vt 0.480619 0.719970
vt 0.411165 0.551599
vt 0.480619 0.680615
vt 0.411165 1.000000
vt 0.480619 1.000000
vt 0.480619 0.912569
vt 0.480619 0.087430
vt 0.480619 0.250000
vt 0.480619 0.000000
vt 0.480619 0.030030
vt 0.480619 0.069385
vt 0.480619 0.084279
vt 0.480619 0.337430
vt 0.480619 0.500000
vt 0.480619 0.662570
vt 0.480619 0.665721
vt 0.480619 0.719970
vt 0.480619 0.750000
vt 0.480619 0.680615
vt 0.480619 0.912570
vt 0.480619 1.000000
vt 0.621190 0.146017
vt 0.625000 0.149444
vt 0.625000 0.116979
vt 0.621190 0.116979
vt 0.621190 0.147431
vt 0.621190 0.149444
vt 0.621190 0.631607
vt 0.621190 0.633021
vt 0.625000 0.633021
vt 0.621190 0.600556
vt 0.621191 0.600846
vt 0.625000 0.600556
vt 0.621191 0.602569
vt 0.875000 0.633021
vt 0.875000 0.600556
vt 0.527248 0.152248
vt 0.527248 0.000000
vt 0.454071 0.000000
vt 0.454071 0.000256
vt 0.454071 0.079071
vt 0.402983 0.246990
vt 0.402685 0.246990
vt 0.402685 0.247671
vt 0.402685 0.250000
vt 0.527248 0.250000
vt 0.527248 0.248263
vt 0.527248 0.225417
vt 0.527248 0.210939
vt 0.454071 0.102235
vt 0.454071 0.121679
vt 0.454071 0.125794
vt 0.454071 0.147371
vt 0.454071 0.225417
vt 0.454071 0.225974
vt 0.454071 0.227151
vt 0.454071 0.246990
vt 0.526133 0.251350
vt 0.527248 0.251350
vt 0.527248 0.251121
vt 0.402685 0.251350
vt 0.408111 0.251350
vt 0.519522 0.251350
vt 0.514097 0.498650
vt 0.402685 0.498650
vt 0.402685 0.500000
vt 0.527248 0.500000
vt 0.527248 0.498970
vt 0.527248 0.498650
vt 0.519522 0.498650
vt 0.402685 0.503011
vt 0.402983 0.503011
vt 0.454071 0.503011
vt 0.454071 0.522849
vt 0.454071 0.523806
vt 0.454071 0.524122
vt 0.454071 0.579071
vt 0.527248 0.652248
vt 0.527248 0.534479
vt 0.527248 0.524122
vt 0.527248 0.501141
vt 0.527248 0.750000
vt 0.454071 0.581184
vt 0.454071 0.602629
vt 0.454071 0.608414
vt 0.454071 0.628321
vt 0.454071 0.722401
vt 0.454071 0.749744
vt 0.454071 0.750000
vt 0.527248 0.901172
vt 0.454071 0.829071
vt 0.527248 0.902248
vt 0.454071 1.000000
vt 0.527248 1.000000
vt 0.406809 0.031809
vt 0.406809 0.000000
vt 0.406809 0.250000
vt 0.410437 0.000000
vt 0.410437 0.035437
vt 0.410437 0.250000
vt 0.410437 0.064310
vt 0.406809 0.281810
vt 0.406809 0.500000
vt 0.410437 0.285437
vt 0.410437 0.500000
vt 0.410437 0.458780
vt 0.410437 0.454313
vt 0.410437 0.423975
vt 0.410437 0.300237
vt 0.406809 0.531809
vt 0.406809 0.750000
vt 0.410437 0.535437
vt 0.410437 0.750000
vt 0.410437 0.748209
vt 0.410437 0.680010
vt 0.406810 0.781810
vt 0.406809 1.000000
vt 0.410437 0.785437
vt 0.410437 1.000000
vt 0.410437 0.958724
vt 0.410437 0.838810
vt 0.314056 0.748209
vt 0.185809 0.748209
vt 0.185809 0.718661
vt 0.185809 0.679937
vt 0.185809 0.665282
vt 0.185809 0.662181
vt 0.185809 0.502219
vt 0.230660 0.502219
vt 0.314056 0.502219
vt 0.314056 0.662181
vt 0.314056 0.665282
vt 0.314056 0.679937
vt 0.314056 0.718661
vt 0.230660 0.748209
vt 0.410437 0.000000
vt 0.410437 0.250000
vt 0.410437 0.050435
vt 0.410437 0.015079
vt 0.410437 0.001791
vt 0.410437 0.000920
vt 0.410437 0.500000
vt 0.410437 0.446167
vt 0.410437 0.322430
vt 0.410437 0.289439
vt 0.410437 0.283195
vt 0.410437 0.750000
vt 0.410437 0.655526
vt 0.410437 1.000000
vt 0.410437 0.944326
vt 0.410437 0.797770
vt 0.314016 0.718661
vt 0.314016 0.748209
vt 0.185769 0.748209
vt 0.185769 0.718661
vt 0.185769 0.679936
vt 0.185769 0.665281
vt 0.185769 0.662181
vt 0.185769 0.502219
vt 0.230620 0.502219
vt 0.314016 0.502219
vt 0.314016 0.662181
vt 0.314016 0.665282
vt 0.314016 0.679936
vt 0.230620 0.748209
s 1
usemtl GOLDEN
f 58/1/1 33/2/2 34/3/3
f 58/1/1 34/3/3 59/4/4
f 50/5/5 37/6/6 38/7/7
f 50/5/5 38/7/7 51/8/8
f 61/9/9 45/10/10 46/11/11
f 61/9/9 46/11/11 62/12/12
f 54/13/13 41/14/14 42/15/15
f 54/13/13 42/15/15 55/16/16
f 92/17/17 39/18/18 40/19/19
f 92/17/17 40/19/19 107/20/17
s 0
f 41/14/20 35/21/20 36/22/20
f 41/14/20 36/22/20 42/15/20
f 72/23/21 43/24/21 44/25/21
f 72/23/21 44/25/21 73/26/21
f 37/6/22 47/27/22 48/28/22
f 37/6/22 48/28/22 38/7/22
f 141/29/23 143/30/23 67/31/23
f 67/31/23 33/2/23 58/1/23
f 58/1/23 35/21/23 41/14/23
s 1
f 41/14/14 54/13/13 43/24/24
s 0
f 43/24/23 72/23/23 144/32/23
f 43/24/23 144/32/23 142/33/23
f 58/1/23 41/14/23 43/24/23
f 141/29/23 67/31/23 58/1/23
f 43/24/23 142/33/23 141/29/23
f 141/29/23 58/1/23 43/24/23
f 59/4/25 34/3/25 25/34/25
s 1
f 59/4/25 25/34/26 57/35/27
s 0
f 107/20/28 40/19/28 28/36/28
f 107/20/28 28/36/28 105/37/28
f 42/15/29 36/22/29 26/38/29
f 42/15/29 26/38/29 29/39/29
f 51/8/30 38/7/30 27/40/30
f 51/8/30 27/40/30 49/41/30
f 32/42/31 27/40/31 38/7/31
f 32/42/31 38/7/31 48/28/31
f 55/16/32 42/15/32 29/39/32
f 55/16/32 29/39/32 53/43/32
s 1
f 90/44/33 31/45/33 46/11/33
s 0
f 90/44/33 46/11/33 94/46/33
f 62/12/34 46/11/34 31/45/34
s 1
f 62/12/34 31/45/35 60/47/36
s 0
f 40/19/30 51/8/30 49/41/30
f 40/19/30 49/41/30 28/36/30
s 1
f 39/18/18 50/5/5 51/8/8
f 39/18/18 51/8/8 40/19/19
s 0
f 44/25/32 55/16/32 53/43/32
f 44/25/32 53/43/32 30/48/32
s 1
f 43/24/24 54/13/13 55/16/16
f 43/24/24 55/16/16 44/25/37
s 0
f 36/22/25 59/4/25 57/35/25
f 36/22/25 57/35/25 26/38/25
s 1
f 35/21/38 58/1/1 59/4/4
f 35/21/38 59/4/4 36/22/39
s 0
f 48/28/34 62/12/34 60/47/34
f 48/28/34 60/47/34 32/42/34
s 1
f 47/27/40 61/9/9 62/12/12
f 47/27/40 62/12/12 48/28/41
s 0
f 65/49/42 30/48/42 20/50/42
f 65/49/42 20/50/42 75/50/42
s 1
f 53/43/43 52/50/44 20/50/45
f 53/43/43 20/50/45 30/48/46
f 29/39/47 21/50/48 52/50/44
f 29/39/47 52/50/44 53/43/43
f 60/47/36 23/50/49 32/42/50
s 0
f 75/50/42 20/50/42 173/50/42
f 75/50/42 173/50/42 127/50/42
f 32/42/51 23/50/51 17/50/51
f 32/42/51 17/50/51 27/40/51
s 1
f 16/50/52 28/36/52 49/41/52
s 0
f 104/50/53 105/37/53 28/36/53
f 104/50/53 28/36/53 16/50/53
f 56/50/54 12/50/54 176/50/54
f 56/50/54 176/50/54 175/50/54
s 1
f 12/50/55 56/50/56 57/35/27
f 12/50/55 57/35/27 25/34/26
f 26/38/57 57/35/27 56/50/56
f 26/38/57 56/50/56 8/50/58
s 0
f 29/39/59 26/38/59 8/50/59
f 29/39/59 8/50/59 21/50/59
f 154/50/60 159/50/60 79/50/60
f 8/50/60 83/50/60 156/50/60
f 8/50/60 156/50/60 155/50/60
f 154/50/60 79/50/60 21/50/60
f 157/50/60 160/50/60 153/50/60
f 153/50/60 154/50/60 21/50/60
f 21/50/60 8/50/60 155/50/60
f 158/50/60 157/50/60 153/50/60
f 21/50/60 155/50/60 158/50/60
f 21/50/60 158/50/60 153/50/60
f 168/50/60 99/50/60 80/50/60
f 168/50/60 80/50/60 164/50/60
f 184/50/60 167/50/60 163/50/60 183/50/60
f 166/50/60 182/50/60 181/50/60
f 163/50/60 187/50/60 183/50/60
f 186/50/60 185/50/60 162/50/60 166/50/60 181/50/60
f 84/50/60 101/50/60 165/50/60
f 84/50/60 165/50/60 161/50/60
f 164/50/60 80/50/60 79/50/60
f 164/50/60 79/50/60 159/50/60
f 162/50/60 160/50/60 157/50/60
f 190/50/60 187/50/60 163/50/60 160/50/60 162/50/60 185/50/60 189/50/60 188/50/60
f 83/50/60 84/50/60 161/50/60
f 83/50/60 161/50/60 156/50/60
f 112/50/60 101/50/60 84/50/60
f 112/50/60 84/50/60 81/50/60
f 12/50/53 25/34/53 64/51/53
f 12/50/53 64/51/53 85/50/53
f 85/50/53 64/51/53 63/52/53
f 85/50/53 63/52/53 86/50/53
f 97/50/60 78/50/60 80/50/60
f 97/50/60 80/50/60 99/50/60
f 78/50/60 87/50/60 77/50/60
f 89/53/42 66/54/42 76/50/42
f 89/53/42 76/50/42 95/50/42
f 66/54/42 65/49/42 75/50/42
f 66/54/42 75/50/42 76/50/42
s 1
f 30/48/33 65/49/33 73/26/33
s 0
f 30/48/33 73/26/33 44/25/33
s 1
f 65/49/33 66/54/33 74/55/33
s 0
f 65/49/33 74/55/33 73/26/33
f 34/3/28 70/56/28 64/51/28
f 34/3/28 64/51/28 25/34/28
f 70/56/28 69/57/28 63/52/28
f 70/56/28 63/52/28 64/51/28
f 91/58/23 68/59/23 147/60/23
f 91/58/23 147/60/23 146/61/23
f 148/62/23 71/63/23 110/64/23
f 148/62/23 110/64/23 145/65/23
f 68/59/23 67/31/23 143/30/23
f 68/59/23 143/30/23 147/60/23
f 144/32/23 72/23/23 71/63/23
f 144/32/23 71/63/23 148/62/23
f 110/64/21 71/63/21 74/55/21
f 110/64/21 74/55/21 93/66/21
f 71/63/21 72/23/21 73/26/21
f 71/63/21 73/26/21 74/55/21
s 1
f 33/2/17 67/31/17 70/56/17
s 0
f 33/2/17 70/56/17 34/3/17
s 1
f 67/31/17 68/59/17 69/57/61
s 0
f 67/31/17 69/57/17 70/56/17
f 96/50/42 95/50/42 137/50/42
f 96/50/42 137/50/42 122/50/42
f 76/50/42 75/50/42 127/50/42
f 76/50/42 127/50/42 128/50/42
f 95/50/42 76/50/42 128/50/42
f 95/50/42 128/50/42 137/50/42
f 88/50/62 81/50/62 82/50/62
f 112/50/63 81/50/63 88/50/63
f 112/50/64 88/50/64 116/50/64
f 77/50/60 52/50/60 21/50/60
f 77/50/60 21/50/60 79/50/60
f 82/50/60 83/50/60 8/50/60
f 82/50/60 8/50/60 56/50/60
f 81/50/60 84/50/60 83/50/60
f 81/50/60 83/50/60 82/50/60
f 78/50/60 77/50/60 79/50/60
f 78/50/60 79/50/60 80/50/60
f 111/50/63 112/50/63 116/50/63
f 111/50/64 116/50/64 115/50/64
f 78/50/60 97/50/60 113/50/60
f 78/50/60 113/50/60 87/50/60
f 97/50/60 98/50/60 114/50/60
f 97/50/60 114/50/60 113/50/60
f 104/50/53 16/50/53 125/50/53
f 104/50/53 125/50/53 126/50/53
f 98/50/65 100/50/65 118/50/65
f 98/50/65 118/50/65 117/50/65
f 45/10/21 109/67/21 94/46/21
f 45/10/21 94/46/21 46/11/21
s 1
f 109/67/21 110/64/21 93/66/21
s 0
f 109/67/21 93/66/21 94/46/21
f 45/10/23 61/9/23 47/27/23
f 47/27/23 37/6/23 50/5/23
f 50/5/23 39/18/23 92/17/23
f 92/17/23 149/68/23 151/69/23
f 152/70/23 150/71/23 109/67/23
f 50/5/23 92/17/23 151/69/23
f 152/70/23 109/67/23 45/10/23
f 50/5/23 151/69/23 152/70/23
f 45/10/23 47/27/23 50/5/23
f 50/5/23 152/70/23 45/10/23
f 92/17/23 91/58/23 146/61/23
f 92/17/23 146/61/23 149/68/23
f 145/65/23 110/64/23 109/67/23
f 145/65/23 109/67/23 150/71/23
f 31/45/42 90/44/42 96/50/42
f 31/45/42 96/50/42 24/50/42
f 90/44/42 89/53/42 95/50/42
f 90/44/42 95/50/42 96/50/42
f 98/50/60 97/50/60 99/50/60
f 98/50/60 99/50/60 100/50/60
f 111/50/60 102/50/60 101/50/60
f 111/50/60 101/50/60 112/50/60
f 24/50/42 96/50/42 122/50/42
f 24/50/42 122/50/42 123/50/42
f 191/50/66 100/50/66 192/50/66
f 100/50/60 99/50/60 168/50/60
f 100/50/60 168/50/60 171/50/60
f 192/50/60 100/50/60 171/50/60 193/50/60
f 167/50/60 184/50/60 195/50/60 170/50/60
f 166/50/60 194/50/60 182/50/60
f 193/50/60 171/50/60 170/50/60 196/50/60
f 102/50/60 198/50/60 197/50/60
f 196/50/60 170/50/60 200/50/60 199/50/60
f 170/50/60 195/50/60 201/50/60
f 169/50/60 202/50/60 194/50/60 166/50/60
f 172/50/60 165/50/60 101/50/60
f 170/50/60 201/50/60 200/50/60
f 169/50/60 203/50/60 202/50/60
f 172/50/60 101/50/60 102/50/60
f 203/50/60 169/50/60 172/50/60 204/50/60
f 204/50/60 172/50/60 102/50/60 197/50/60
f 86/50/53 63/52/53 106/72/53
f 86/50/53 106/72/53 103/50/53
f 103/50/53 106/72/53 105/37/53
f 103/50/53 105/37/53 104/50/53
s 1
f 66/54/33 89/53/33 93/66/33
s 0
f 66/54/33 93/66/33 74/55/33
f 89/53/33 90/44/33 94/46/33
s 1
f 89/53/33 94/46/33 93/66/33
f 69/57/61 108/73/67 106/72/28
s 0
f 69/57/28 106/72/28 63/52/28
f 108/73/28 107/20/28 105/37/28
s 1
f 108/73/67 105/37/28 106/72/28
s 0
f 68/59/17 91/58/17 108/73/17
s 1
f 68/59/17 108/73/67 69/57/61
s 0
f 91/58/17 92/17/17 107/20/17
s 1
f 91/58/17 107/20/17 108/73/17
s 0
f 131/50/60 132/50/60 135/50/60
f 131/50/60 135/50/60 139/50/60
f 132/50/60 133/50/60 134/50/60
f 132/50/60 134/50/60 135/50/60
f 137/50/60 128/50/60 130/50/60
f 137/50/60 130/50/60 138/50/60
f 128/50/60 127/50/60 129/50/60
f 128/50/60 129/50/60 130/50/60
f 123/50/60 122/50/60 124/50/60
f 122/50/60 137/50/60 138/50/60
f 122/50/60 138/50/60 124/50/60
s 1
f 31/45/35 24/50/68 123/50/68 124/50/68 114/50/68 98/50/68 117/50/68 118/50/68 119/50/68 23/50/49 60/47/36
s 0
f 140/50/60 131/50/60 139/50/60
f 140/50/60 139/50/60 126/50/60
f 49/41/69 27/40/69 17/50/69 121/50/69 120/50/69 136/50/69 111/50/69 115/50/69 140/50/69 126/50/69 125/50/69 16/50/69
f 206/50/60 120/50/60 121/50/60 205/50/60
f 121/50/60 119/50/60 118/50/60
f 207/50/60 209/50/60 178/50/60 118/50/60 208/50/60
f 210/50/60 205/50/60 121/50/60 177/50/60 211/50/60
f 121/50/23 118/50/23 178/50/23
f 121/50/60 178/50/60 177/50/60
f 77/50/53 87/50/53 130/50/53
f 77/50/53 130/50/53 129/50/53
f 102/50/70 111/50/70 136/50/70
f 102/50/70 136/50/70 120/50/70
f 87/50/53 113/50/53 138/50/53
f 87/50/53 138/50/53 130/50/53
f 116/50/42 88/50/42 132/50/42
f 116/50/42 132/50/42 131/50/42
f 113/50/53 114/50/53 124/50/53
f 113/50/53 124/50/53 138/50/53
f 88/50/42 82/50/42 133/50/42
f 88/50/42 133/50/42 132/50/42
f 102/50/59 120/50/59 206/50/59 212/50/59
f 102/50/59 212/50/59 198/50/59
f 118/50/59 100/50/59 213/50/59 208/50/59
f 191/50/59 213/50/59 100/50/59
f 86/50/53 103/50/53 139/50/53
f 86/50/53 139/50/53 135/50/53
f 85/50/53 86/50/53 135/50/53
f 85/50/53 135/50/53 134/50/53
f 103/50/53 104/50/53 126/50/53
f 103/50/53 126/50/53 139/50/53
f 115/50/42 116/50/42 131/50/42
f 115/50/42 131/50/42 140/50/42
f 17/50/51 23/50/51 119/50/51
f 17/50/51 119/50/51 121/50/51
f 143/74/42 141/75/42 5/76/42
f 5/76/42 13/77/42 151/78/42
f 5/76/42 151/78/42 149/79/42
f 147/80/42 143/74/42 5/76/42
f 5/76/42 149/79/42 146/81/42
f 5/76/42 146/81/42 147/80/42
f 151/78/59 13/77/59 22/82/59
f 151/78/59 22/82/59 152/83/59
f 150/84/53 152/83/53 22/82/53
f 22/82/53 19/85/53 142/86/53
f 22/82/53 142/86/53 144/87/53
f 145/88/53 150/84/53 22/82/53
f 22/82/53 144/87/53 148/89/53
f 22/82/53 148/89/53 145/88/53
f 19/85/51 5/90/51 141/91/51
f 19/85/51 141/91/51 142/86/51
f 272/92/23 19/85/23 22/82/23 273/93/23 274/94/23
f 273/93/23 22/82/23 276/95/23 275/96/23
f 238/97/23 13/98/23 5/99/23 237/100/23 239/101/23 250/102/23
f 251/103/23 241/104/23 13/98/23 238/97/23 240/105/23
f 237/100/23 5/99/23 242/106/23
f 277/107/23 5/99/23 19/85/23 272/92/23
f 215/108/23 214/109/23 280/110/23 278/111/23 279/112/23
f 5/99/23 277/107/23 281/113/23 282/114/23
f 252/115/23 244/116/23 217/117/23 216/118/23 243/119/23 245/120/23
f 253/121/23 242/106/23 5/99/23 282/114/23 283/122/23 246/123/23 247/124/23
f 214/109/23 219/125/23 220/126/23 218/127/23 284/128/23 280/110/23
f 218/127/23 223/129/23 221/130/23 222/131/23 217/117/23 244/116/23 246/123/23 283/122/23 284/128/23
f 285/132/23 224/133/23 215/108/23 279/112/23
f 179/134/23 225/135/23 226/136/23
f 276/95/23 22/82/23 286/137/23
f 13/98/23 241/104/23 248/138/23
f 228/139/23 180/140/23 229/141/23
f 243/119/23 216/118/23 227/142/23 249/143/23
f 286/137/23 22/82/23 179/134/23 226/136/23 230/144/23 224/133/23 285/132/23
f 231/145/23 229/141/23 180/140/23 13/98/23 248/138/23 249/143/23 227/142/23
f 180/140/23 179/134/23 22/82/23
f 22/82/23 13/98/23 180/140/23
f 287/146/42 170/147/42 288/148/42
f 290/149/42 153/150/42 160/151/42 289/152/42
f 160/151/42 163/153/42 291/154/42 289/152/42
f 167/155/42 170/147/42 287/146/42 292/156/42
f 163/153/42 167/155/42 292/156/42 291/154/42
f 288/148/59 170/147/59 171/157/59 293/158/59
f 171/157/59 294/159/59 293/158/59
f 171/157/53 295/160/53 294/159/53
f 295/160/53 171/157/53 168/161/53 296/162/53
f 159/163/53 154/164/53 298/165/53 297/166/53
f 296/162/53 168/161/53 164/167/53 299/168/53
f 299/168/53 164/167/53 159/163/53 297/166/53
f 154/164/51 153/169/51 290/170/51 300/171/51
f 154/164/51 300/171/51 298/165/51
f 254/172/42 172/147/42 255/173/42
f 256/174/42 155/150/42 156/151/42 257/175/42
f 257/175/42 156/151/42 161/153/42 258/176/42
f 259/177/42 165/155/42 172/147/42 254/172/42
f 258/176/42 161/153/42 165/155/42 259/177/42
f 255/173/59 172/147/59 169/157/59 260/178/59
f 169/157/59 261/179/59 260/178/59
f 169/157/53 262/180/53 261/179/53
f 262/180/53 169/157/53 166/161/53 263/181/53
f 265/182/53 157/163/53 158/164/53 264/183/53
f 263/181/53 166/161/53 162/167/53 266/184/53
f 266/184/53 162/167/53 157/163/53 265/182/53
f 267/185/51 158/164/51 155/169/51 256/186/51
f 158/164/51 267/185/51 264/183/51
f 127/50/60 173/50/60 174/50/60
f 127/50/60 174/50/60 129/50/60
f 133/50/60 175/50/60 176/50/60
f 133/50/60 176/50/60 134/50/60
f 52/50/53 77/50/53 129/50/53
f 52/50/53 129/50/53 174/50/53
f 12/50/53 85/50/53 134/50/53
f 12/50/53 134/50/53 176/50/53
f 82/50/42 56/50/42 175/50/42
f 82/50/42 175/50/42 133/50/42
f 20/50/71 52/50/71 174/50/71
f 20/50/71 174/50/71 173/50/71
f 232/187/72 179/188/72 178/189/72 209/190/72
f 233/191/53 179/188/53 232/187/53
f 225/192/53 179/188/53 233/191/53
f 234/193/42 211/194/42 177/195/42
f 228/196/42 235/197/42 180/198/42
f 177/195/42 180/198/42 236/199/42 234/193/42
f 235/197/42 236/199/42 180/198/42
f 180/198/59 177/195/59 178/200/59
f 180/198/59 178/200/59 179/201/59
f 222/202/42 221/203/42 189/204/42 185/205/42 186/206/42
f 212/207/42 206/208/42 205/209/42 210/210/42 231/211/42 227/212/42 216/213/42 217/214/42 222/202/42 186/206/42 181/215/42 182/216/42 194/217/42 202/218/42 203/219/42 204/220/42 197/221/42 198/222/42
f 235/223/59 228/224/59 229/225/59 231/211/59 210/210/59 211/226/59 234/227/59 236/228/59
f 232/229/59 209/230/59 207/231/59 230/232/59 226/233/59 225/234/59 233/235/59
f 230/232/53 207/231/53 208/236/53 213/237/53 191/238/53 192/239/53 193/240/53 196/241/53 199/242/53 219/243/53 214/244/53 215/245/53 224/246/53
f 220/247/53 219/243/53 199/242/53 200/248/53 201/249/53 195/250/53 184/251/53 183/252/53 187/253/53 190/254/53
f 218/255/73 220/247/73 190/254/73 188/256/73 223/257/73
f 188/256/73 189/258/73 221/259/73 223/257/73
f 268/260/42 3/261/42 2/76/42 6/77/42 9/262/42
f 239/263/42 3/261/42 268/260/42 250/264/42
f 250/264/42 268/260/42 9/262/42 240/265/42 238/266/42
f 270/267/59 9/262/59 6/77/59 15/82/59 18/268/59
f 240/265/59 9/262/59 270/267/59 251/269/59
f 251/269/59 270/267/59 18/268/59 245/270/59 243/271/59 249/272/59 248/273/59 241/274/59
f 269/275/53 18/268/53 15/82/53 11/85/53 14/276/53
f 245/270/53 18/268/53 269/275/53 252/277/53
f 269/275/53 14/276/53 247/278/53 246/279/53 244/280/53 252/277/53
f 271/281/51 14/276/51 11/85/51 2/90/51 3/282/51
f 247/278/74 14/276/74 271/281/74 253/283/74
f 271/281/74 3/282/74 239/284/74 237/285/74 242/286/74 253/283/74
f 264/287/23 11/85/23 15/82/23 6/98/23 2/99/23 256/288/23 257/289/23 258/290/23 259/291/23 254/292/23 255/293/23 260/294/23 261/295/23 262/296/23 263/297/23 266/298/23 265/299/23
f 267/300/23 256/288/23 2/99/23 11/85/23 264/287/23
f 281/301/42 1/76/42 4/77/42 278/302/42 280/303/42 284/304/42 283/305/42 282/306/42
f 278/302/59 4/77/59 10/82/59 275/307/59 276/308/59 286/309/59 285/310/59 279/311/59
f 10/82/53 7/85/53 274/312/53 273/313/53 275/307/53
f 7/85/51 1/90/51 281/314/51 277/315/51 272/316/51 274/312/51
f 297/317/23 298/318/23 7/85/23 10/82/23 4/98/23 1/99/23 290/319/23 289/320/23 291/321/23 292/322/23 287/323/23 288/324/23 293/325/23 294/326/23 295/327/23 296/328/23 299/329/23
f 290/319/23 1/99/23 7/85/23 298/318/23 300/330/23
